<svg width="25" height="24" viewBox="0 0 25 24" fill="none" xmlns="http://www.w3.org/2000/svg">
<path d="M5.20275 5.42704L5.19995 7.55V18.0542C5.19995 19.8491 6.65503 21.3042 8.44995 21.3042L17.0662 21.3045C16.7573 22.1782 15.9239 22.8042 14.9444 22.8042H8.44995C5.8266 22.8042 3.69995 20.6776 3.69995 18.0542V7.55C3.69995 6.56929 4.3274 5.73512 5.20275 5.42704ZM18.2499 2C19.4926 2 20.5 3.00736 20.5 4.25V17.25C20.5 18.4926 19.4926 19.5 18.2499 19.5H9.24995C8.00731 19.5 6.99995 18.4926 6.99995 17.25V4.25C6.99995 3.00736 8.00731 2 9.24995 2H18.2499ZM18.2499 3.5H9.24995C8.83574 3.5 8.49995 3.83579 8.49995 4.25V17.25C8.49995 17.6642 8.83574 18 9.24995 18H18.2499C18.6642 18 18.9999 17.6642 18.9999 17.25V4.25C18.9999 3.83579 18.6642 3.5 18.2499 3.5Z" fill="#85858C"/>
</svg>
